<svg width="100" height="100" viewBox="0 0 100 100" fill="none" xmlns="http://www.w3.org/2000/svg">
<path d="M69.1389 72.2222H90.9722C89.1389 48.0278 78.7222 33 65.3611 24.1111L71.4444 10.8333C71.6283 10.412 71.7048 9.95164 71.6669 9.4935C71.6291 9.03535 71.4781 8.59376 71.2276 8.20832C70.977 7.82288 70.6348 7.50565 70.2314 7.28507C69.8281 7.06448 69.3763 6.94745 68.9166 6.94446H30.8333C30.3736 6.94745 29.9218 7.06448 29.5185 7.28507C29.1152 7.50565 28.7729 7.82288 28.5224 8.20832C28.2718 8.59376 28.1209 9.03535 28.083 9.4935C28.0452 9.95164 28.1216 10.412 28.3055 10.8333L31.6389 18.0556H59.75L57.25 23.6111H52.1111C53.6805 27.8313 54.8341 32.1945 55.5555 36.6389C56.0228 39.3958 56.3197 42.1788 56.4444 44.9722L52.0555 48.0556C52.0674 44.4626 51.77 40.8753 51.1666 37.3333C50.3991 32.6194 49.075 28.0131 47.2222 23.6111H44.4444C41.8809 26.8502 39.5774 30.2868 37.5555 33.8889C35.9253 36.9788 34.5413 40.1924 33.4166 43.5L29.6111 40.9722C30.7219 37.7754 32.0874 34.6729 33.6944 31.6945C35.3182 28.9015 37.0988 26.2027 39.0278 23.6111H34.1666L34.3889 24.0833C19.6666 33.8889 8.47219 51.1111 8.47219 79.8611C8.43466 80.4655 8.51724 81.0713 8.71518 81.6435C8.91312 82.2157 9.22248 82.7431 9.6254 83.1951C10.0283 83.6471 10.5168 84.0148 11.0627 84.2769C11.6085 84.539 12.2009 84.6904 12.8055 84.7222H35.0277C34.0735 83.7291 33.4147 82.49 33.125 81.1435C32.8354 79.7971 32.9263 78.3966 33.3877 77.099C33.8491 75.8013 34.6627 74.6578 35.7373 73.7965C36.812 72.9351 38.1052 72.39 39.4722 72.2222C38.8069 71.094 38.4523 69.8097 38.4444 68.5C38.4444 66.5109 39.2346 64.6032 40.6411 63.1967C42.0476 61.7902 43.9553 61 45.9444 61H62.6111C64.6002 61 66.5079 61.7902 67.9144 63.1967C69.3209 64.6032 70.1111 66.5109 70.1111 68.5C70.1254 69.8053 69.7897 71.0906 69.1389 72.2222Z" fill="#F29D49"/>
<path d="M60 79.1667C60 78.43 59.7074 77.7234 59.1864 77.2025C58.6655 76.6816 57.959 76.3889 57.2222 76.3889H40.5556C39.8189 76.3889 39.1123 76.6816 38.5914 77.2025C38.0705 77.7234 37.7778 78.43 37.7778 79.1667C37.7778 79.9034 38.0705 80.6099 38.5914 81.1309C39.1123 81.6518 39.8189 81.9445 40.5556 81.9445H57.2222C57.959 81.9445 58.6655 81.6518 59.1864 81.1309C59.7074 80.6099 60 79.9034 60 79.1667Z" fill="#F29D49"/>
<path d="M62.6111 65.2777H45.9445C45.2078 65.2777 44.5012 65.5704 43.9803 66.0913C43.4593 66.6122 43.1667 67.3188 43.1667 68.0555C43.1667 68.7922 43.4593 69.4987 43.9803 70.0197C44.5012 70.5406 45.2078 70.8333 45.9445 70.8333H62.6111C63.3478 70.8333 64.0544 70.5406 64.5753 70.0197C65.0962 69.4987 65.3889 68.7922 65.3889 68.0555C65.3889 67.3188 65.0962 66.6122 64.5753 66.0913C64.0544 65.5704 63.3478 65.2777 62.6111 65.2777Z" fill="#F29D49"/>
<path d="M61.1111 87.5H44.4444C43.7077 87.5 43.0012 87.7927 42.4802 88.3136C41.9593 88.8345 41.6667 89.5411 41.6667 90.2778C41.6667 91.0145 41.9593 91.721 42.4802 92.242C43.0012 92.7629 43.7077 93.0555 44.4444 93.0555H61.1111C61.8478 93.0555 62.5544 92.7629 63.0753 92.242C63.5962 91.721 63.8889 91.0145 63.8889 90.2778C63.8889 89.5411 63.5962 88.8345 63.0753 88.3136C62.5544 87.7927 61.8478 87.5 61.1111 87.5Z" fill="#F29D49"/>
<path d="M90.8334 87.5H71.3889C70.6522 87.5 69.9457 87.7927 69.4247 88.3136C68.9038 88.8345 68.6111 89.5411 68.6111 90.2778C68.6111 91.0145 68.9038 91.721 69.4247 92.242C69.9457 92.7629 70.6522 93.0555 71.3889 93.0555H90.8334C91.5701 93.0555 92.2766 92.7629 92.7975 92.242C93.3185 91.721 93.6111 91.0145 93.6111 90.2778C93.6111 89.5411 93.3185 88.8345 92.7975 88.3136C92.2766 87.7927 91.5701 87.5 90.8334 87.5Z" fill="#F29D49"/>
<path d="M93.6111 76.3889H74.1667C73.43 76.3889 72.7234 76.6816 72.2025 77.2025C71.6816 77.7234 71.3889 78.43 71.3889 79.1667C71.3889 79.9034 71.6816 80.6099 72.2025 81.1309C72.7234 81.6518 73.43 81.9445 74.1667 81.9445H93.6111C94.3479 81.9445 95.0544 81.6518 95.5753 81.1309C96.0963 80.6099 96.3889 79.9034 96.3889 79.1667C96.3889 78.43 96.0963 77.7234 95.5753 77.2025C95.0544 76.6816 94.3479 76.3889 93.6111 76.3889Z" fill="#F29D49"/>
</svg>
