<svg width="23" height="21" viewBox="0 0 23 21" fill="none" xmlns="http://www.w3.org/2000/svg">
<path fill-rule="evenodd" clip-rule="evenodd" d="M0 1.5C0 0.671573 0.671573 0 1.5 0H14.5C15.3284 0 16 0.671573 16 1.5V7.87192H14V2H2V18H7.64209V20H1.5C0.671573 20 0 19.3284 0 18.5V1.5ZM12 4.61539H4V6.61539H12V4.61539ZM4 13.8462H9V15.8462H4V13.8462ZM12 9.23077H4V11.2308H12V9.23077Z" fill="white"/>
<path d="M21.7714 10.0336L13.3311 18.729L10.126 19.6151L11.0341 16.2921L19.4209 7.59668" stroke="white" stroke-width="1.08" stroke-linecap="round" stroke-linejoin="round"/>
<path d="M21.985 10.5322L22.359 10.1445C23.2137 9.25835 23.2137 7.81835 22.359 6.93219C21.5043 6.04604 20.1154 6.04604 19.2607 6.93219L18.8867 7.31989L21.985 10.5322Z" fill="white"/>
<path d="M11.0877 16.2368L13.4382 18.6184L10.3398 19.3937L11.0877 16.2368Z" fill="white"/>
</svg>
