<svg width="94" height="70" viewBox="0 0 94 70" fill="none" xmlns="http://www.w3.org/2000/svg">
<path d="M91.3613 32.9258C87.2188 14.1972 80.9844 4.20115 71.7363 1.47068C69.7924 0.900466 67.7759 0.615591 65.75 0.624981C63.0723 0.624981 60.7402 1.27732 58.2734 1.96873C55.3008 2.80271 51.9238 3.74998 47 3.74998C42.0762 3.74998 38.6973 2.80467 35.7187 1.97068C33.25 1.27732 30.9199 0.624981 28.25 0.624981C26.1551 0.617717 24.0694 0.901684 22.0527 1.46873C12.8535 4.18748 6.62304 14.1797 2.41992 32.914C-2.09962 53.0742 0.124994 65.8027 8.6582 68.7558C9.82789 69.1681 11.0586 69.3807 12.2988 69.3847C18.1445 69.3847 22.832 64.5156 26.0352 60.5293C29.6543 56.0176 33.8906 53.7285 47 53.7285C58.709 53.7285 63.5547 55.3164 67.7402 60.5293C70.3711 63.8066 72.8574 66.0996 75.3379 67.5429C78.6367 69.4609 81.9336 69.8867 85.1348 68.7871C90.1777 67.0664 93.0684 62.5176 93.7285 55.2636C94.2305 49.7011 93.457 42.3945 91.3613 32.9258ZM37.625 31.875H31.375V38.125C31.375 38.9538 31.0458 39.7486 30.4597 40.3347C29.8737 40.9207 29.0788 41.25 28.25 41.25C27.4212 41.25 26.6263 40.9207 26.0403 40.3347C25.4542 39.7486 25.125 38.9538 25.125 38.125V31.875H18.875C18.0462 31.875 17.2513 31.5457 16.6653 30.9597C16.0792 30.3736 15.75 29.5788 15.75 28.75C15.75 27.9212 16.0792 27.1263 16.6653 26.5403C17.2513 25.9542 18.0462 25.625 18.875 25.625H25.125V19.375C25.125 18.5462 25.4542 17.7513 26.0403 17.1653C26.6263 16.5792 27.4212 16.25 28.25 16.25C29.0788 16.25 29.8737 16.5792 30.4597 17.1653C31.0458 17.7513 31.375 18.5462 31.375 19.375V25.625H37.625C38.4538 25.625 39.2487 25.9542 39.8347 26.5403C40.4208 27.1263 40.75 27.9212 40.75 28.75C40.75 29.5788 40.4208 30.3736 39.8347 30.9597C39.2487 31.5457 38.4538 31.875 37.625 31.875ZM54.0312 32.6562C53.2587 32.6562 52.5034 32.4271 51.861 31.9979C51.2187 31.5687 50.718 30.9586 50.4223 30.2448C50.1267 29.5311 50.0493 28.7456 50.2001 27.9879C50.3508 27.2302 50.7228 26.5341 51.2691 25.9878C51.8154 25.4415 52.5114 25.0695 53.2692 24.9188C54.0269 24.7681 54.8123 24.8454 55.5261 25.1411C56.2399 25.4367 56.85 25.9374 57.2792 26.5798C57.7084 27.2222 57.9375 27.9774 57.9375 28.75C57.9375 29.786 57.526 30.7795 56.7934 31.5121C56.0608 32.2447 55.0673 32.6562 54.0312 32.6562ZM62.625 41.25C61.852 41.25 61.0964 41.0206 60.4538 40.591C59.8112 40.1613 59.3105 39.5507 59.0152 38.8363C58.7198 38.122 58.643 37.3361 58.7945 36.5781C58.9461 35.82 59.3191 35.124 59.8663 34.5781C60.4136 34.0322 61.1106 33.661 61.8689 33.5113C62.6273 33.3617 63.413 33.4405 64.1266 33.7376C64.8402 34.0348 65.4496 34.537 65.8777 35.1806C66.3057 35.8243 66.5332 36.5805 66.5312 37.3535C66.5287 38.3878 66.116 39.3789 65.3837 40.1093C64.6514 40.8398 63.6593 41.25 62.625 41.25ZM62.625 24.0625C61.8524 24.0625 61.0972 23.8334 60.4548 23.4042C59.8124 22.9749 59.3117 22.3649 59.0161 21.6511C58.7204 20.9373 58.6431 20.1519 58.7938 19.3942C58.9445 18.6364 59.3166 17.9404 59.8629 17.3941C60.4092 16.8478 61.1052 16.4758 61.8629 16.325C62.6207 16.1743 63.4061 16.2517 64.1199 16.5473C64.8336 16.843 65.4437 17.3437 65.8729 17.986C66.3022 18.6284 66.5312 19.3836 66.5312 20.1562C66.5312 21.1922 66.1197 22.1858 65.3871 22.9184C64.6546 23.6509 63.661 24.0625 62.625 24.0625ZM71.2188 32.6562C70.4462 32.6562 69.6909 32.4271 69.0486 31.9979C68.4062 31.5687 67.9055 30.9586 67.6098 30.2448C67.3142 29.5311 67.2368 28.7456 67.3876 27.9879C67.5383 27.2302 67.9103 26.5341 68.4566 25.9878C69.0029 25.4415 69.6989 25.0695 70.4567 24.9188C71.2144 24.7681 71.9998 24.8454 72.7136 25.1411C73.4274 25.4367 74.0375 25.9374 74.4667 26.5798C74.8959 27.2222 75.125 27.9774 75.125 28.75C75.125 29.786 74.7135 30.7795 73.9809 31.5121C73.2483 32.2447 72.2548 32.6562 71.2188 32.6562Z" fill="#F29D49"/>
</svg>
