<svg width="12" height="12" viewBox="0 0 12 12" fill="none" xmlns="http://www.w3.org/2000/svg">
<path d="M5.99449 0.166656C2.77449 0.166656 0.166992 2.77999 0.166992 5.99999C0.166992 9.21999 2.77449 11.8333 5.99449 11.8333C9.22033 11.8333 11.8337 9.21999 11.8337 5.99999C11.8337 2.77999 9.22033 0.166656 5.99449 0.166656ZM10.037 3.66666H8.31616C8.13359 2.94417 7.86324 2.24676 7.51116 1.58999C8.57523 1.95632 9.47184 2.6935 10.037 3.66666ZM6.00033 1.35666C6.48449 2.05666 6.86366 2.83249 7.11449 3.66666H4.88616C5.13699 2.83249 5.51616 2.05666 6.00033 1.35666ZM1.48533 7.16666C1.39199 6.79332 1.33366 6.40249 1.33366 5.99999C1.33366 5.59749 1.39199 5.20666 1.48533 4.83332H3.45699C3.41033 5.21832 3.37533 5.60332 3.37533 5.99999C3.37533 6.39666 3.41033 6.78166 3.45699 7.16666H1.48533ZM1.96366 8.33332H3.68449C3.87116 9.06249 4.13949 9.76249 4.48949 10.41C3.42431 10.0457 2.52706 9.30797 1.96366 8.33332ZM3.68449 3.66666H1.96366C2.52706 2.69201 3.42431 1.95432 4.48949 1.58999C4.13741 2.24676 3.86706 2.94417 3.68449 3.66666ZM6.00033 10.6433C5.51616 9.94332 5.13699 9.16749 4.88616 8.33332H7.11449C6.86366 9.16749 6.48449 9.94332 6.00033 10.6433ZM7.36533 7.16666H4.63533C4.58283 6.78166 4.54199 6.39666 4.54199 5.99999C4.54199 5.60332 4.58283 5.21249 4.63533 4.83332H7.36533C7.41783 5.21249 7.45866 5.60332 7.45866 5.99999C7.45866 6.39666 7.41783 6.78166 7.36533 7.16666ZM7.51116 10.41C7.86116 9.76249 8.12949 9.06249 8.31616 8.33332H10.037C9.47184 9.30649 8.57523 10.0437 7.51116 10.41ZM8.54366 7.16666C8.59033 6.78166 8.62533 6.39666 8.62533 5.99999C8.62533 5.60332 8.59033 5.21832 8.54366 4.83332H10.5153C10.6087 5.20666 10.667 5.59749 10.667 5.99999C10.667 6.40249 10.6087 6.79332 10.5153 7.16666H8.54366Z" fill="white" fill-opacity="0.8"/>
</svg>
