<svg width="5" height="25" viewBox="0 0 5 25" fill="none" xmlns="http://www.w3.org/2000/svg">
<path d="M5 22.1154C5 22.8804 4.73661 23.6141 4.26777 24.1551C3.79893 24.6961 3.16304 25 2.5 25C1.83696 25 1.20107 24.6961 0.732233 24.1551C0.263392 23.6141 0 22.8804 0 22.1154C0 21.3503 0.263392 20.6166 0.732233 20.0757C1.20107 19.5347 1.83696 19.2308 2.5 19.2308C3.16304 19.2308 3.79893 19.5347 4.26777 20.0757C4.73661 20.6166 5 21.3503 5 22.1154ZM5 12.5C5 13.265 4.73661 13.9988 4.26777 14.5397C3.79893 15.0807 3.16304 15.3846 2.5 15.3846C1.83696 15.3846 1.20107 15.0807 0.732233 14.5397C0.263392 13.9988 0 13.265 0 12.5C0 11.735 0.263392 11.0012 0.732233 10.4603C1.20107 9.9193 1.83696 9.61538 2.5 9.61538C3.16304 9.61538 3.79893 9.9193 4.26777 10.4603C4.73661 11.0012 5 11.735 5 12.5ZM5 2.88462C5 3.64966 4.73661 4.38338 4.26777 4.92435C3.79893 5.46532 3.16304 5.76923 2.5 5.76923C1.83696 5.76923 1.20107 5.46532 0.732233 4.92435C0.263392 4.38338 0 3.64966 0 2.88462C0 2.11957 0.263392 1.38585 0.732233 0.844884C1.20107 0.303914 1.83696 0 2.5 0C3.16304 0 3.79893 0.303914 4.26777 0.844884C4.73661 1.38585 5 2.11957 5 2.88462Z" fill="#C4C4C4"/>
</svg>
