<svg width="90" height="87" viewBox="0 0 90 87" fill="none" xmlns="http://www.w3.org/2000/svg">
<path d="M45 37.3889C52.3024 37.3889 58.2222 31.5438 58.2222 24.3334C58.2222 17.123 52.3024 11.2778 45 11.2778C37.6975 11.2778 31.7778 17.123 31.7778 24.3334C31.7778 31.5438 37.6975 37.3889 45 37.3889Z" fill="#F29D49"/>
<path d="M24.9445 25.6388H26.2778V24.4443C26.2859 20.971 27.2658 17.5692 29.1067 14.6238C30.9475 11.6784 33.5759 9.30696 36.6945 7.77766C35.7712 5.65144 34.2893 3.81497 32.4062 2.46331C30.5231 1.11165 28.309 0.295273 25.9992 0.100877C23.6893 -0.0935181 21.37 0.341332 19.2874 1.35924C17.2049 2.37715 15.4369 3.94011 14.1713 5.88212C12.9057 7.82413 12.1897 10.0727 12.0993 12.3889C12.009 14.7052 12.5477 17.0026 13.6583 19.0373C14.7688 21.072 16.4097 22.7679 18.4066 23.9449C20.4036 25.1219 22.682 25.736 25 25.7221L24.9445 25.6388Z" fill="#F29D49"/>
<path d="M63.7778 24.3333V25.5278H65.1111C67.3982 25.5048 69.6368 24.8657 71.5913 23.6778C73.5458 22.4898 75.1439 20.7969 76.2174 18.7772C77.2909 16.7576 77.8 14.4859 77.6913 12.2013C77.5825 9.91665 76.8599 7.7036 75.5994 5.79505C74.3389 3.8865 72.5873 2.35306 70.5288 1.35612C68.4702 0.359181 66.181 -0.0643772 63.9021 0.130028C61.6232 0.324433 59.4388 1.12961 57.5789 2.46081C55.719 3.79201 54.2523 5.59999 53.3333 7.69446C56.4529 9.21778 59.0841 11.5833 60.9298 14.5236C62.7755 17.4639 63.762 20.8618 63.7778 24.3333Z" fill="#F29D49"/>
<path d="M56.9166 38.6943C62.4396 39.7875 67.7797 41.658 72.7777 44.2499C73.4819 44.6367 74.1196 45.1337 74.6666 45.7221H89.4444V36.2221C89.4471 35.8577 89.3502 35.4996 89.1642 35.1862C88.9781 34.8729 88.71 34.6164 88.3888 34.4443C81.1893 30.6786 73.1804 28.724 65.0555 28.7499H63.2222C62.2595 32.663 60.0455 36.1547 56.9166 38.6943Z" fill="#F29D49"/>
<path d="M13.1389 51.1111C13.1338 49.7122 13.5116 48.3385 14.2314 47.1389C14.9511 45.9393 15.9854 44.9595 17.2222 44.3056C22.2202 41.7137 27.5604 39.8432 33.0833 38.75C29.9696 36.2321 27.757 32.7718 26.7778 28.8889H24.9444C16.8195 28.8631 8.81067 30.8176 1.61109 34.5834C1.28989 34.7554 1.0218 35.012 0.835772 35.3253C0.649741 35.6386 0.552841 35.9968 0.555536 36.3611V54.1111H13.1389V51.1111Z" fill="#F29D49"/>
<path d="M54.6111 67.1388H71.1667V71.0277H54.6111V67.1388Z" fill="#F29D49"/>
<path d="M86.1389 52.0554H67.0555V49.2776C67.0555 48.5409 66.7629 47.8344 66.2419 47.3134C65.721 46.7925 65.0145 46.4999 64.2778 46.4999C63.541 46.4999 62.8345 46.7925 62.3136 47.3134C61.7926 47.8344 61.5 48.5409 61.5 49.2776V52.0554H56.1111V44.1943C52.4565 43.4269 48.7342 43.0267 45 42.9999C36.2327 42.9633 27.5906 45.0809 19.8333 49.1665C19.4878 49.3458 19.1986 49.6171 18.9976 49.9504C18.7966 50.2837 18.6917 50.6662 18.6944 51.0554V66.6387H38.4444V83.5554C38.4444 84.2921 38.7371 84.9987 39.258 85.5196C39.7789 86.0405 40.4855 86.3332 41.2222 86.3332H86.1389C86.8756 86.3332 87.5821 86.0405 88.1031 85.5196C88.624 84.9987 88.9167 84.2921 88.9167 83.5554V54.8332C88.9167 54.0965 88.624 53.3899 88.1031 52.869C87.5821 52.3481 86.8756 52.0554 86.1389 52.0554ZM83.3611 80.8332H44V57.611H61.5V60.1387C61.5 60.8755 61.7926 61.582 62.3136 62.1029C62.8345 62.6239 63.541 62.9165 64.2778 62.9165C65.0145 62.9165 65.721 62.6239 66.2419 62.1029C66.7629 61.582 67.0555 60.8755 67.0555 60.1387V57.611H83.3611V80.8332Z" fill="#F29D49"/>
</svg>
