<svg width="12" height="8" viewBox="0 0 12 8" fill="none" xmlns="http://www.w3.org/2000/svg">
<path d="M6.55892 7.42554L11.5951 2.16439C12.1895 1.54334 11.7752 0.511789 10.917 0.473393L1.33462 0.0446359C1.14257 0.0358779 0.952074 0.082662 0.785934 0.179385C0.619794 0.276109 0.485057 0.418672 0.397855 0.590001C0.310653 0.76133 0.274685 0.954165 0.294258 1.14541C0.313831 1.33666 0.388115 1.51821 0.508214 1.66832L5.05447 7.35722C5.14343 7.46872 5.25522 7.55989 5.38233 7.62462C5.50944 7.68935 5.64893 7.72614 5.79143 7.73252C5.93393 7.73889 6.07614 7.71471 6.20853 7.66159C6.34091 7.60847 6.46039 7.52764 6.55896 7.42454L6.55892 7.42554Z" fill="#B10910"/>
</svg>
